<svg width="326" height="50" viewBox="0 0 326 50" fill="none" xmlns="http://www.w3.org/2000/svg">
<path d="M15.048 41.432C12.48 41.432 10.152 40.88 8.064 39.776C6 38.648 4.368 37.1 3.168 35.132C1.992 33.14 1.404 30.896 1.404 28.4C1.404 25.904 1.992 23.672 3.168 21.704C4.368 19.712 6 18.164 8.064 17.06C10.152 15.932 12.492 15.368 15.084 15.368C17.268 15.368 19.236 15.752 20.988 16.52C22.764 17.288 24.252 18.392 25.452 19.832L21.708 23.288C20.004 21.32 17.892 20.336 15.372 20.336C13.812 20.336 12.42 20.684 11.196 21.38C9.972 22.052 9.012 23 8.316 24.224C7.644 25.448 7.308 26.84 7.308 28.4C7.308 29.96 7.644 31.352 8.316 32.576C9.012 33.8 9.972 34.76 11.196 35.456C12.42 36.128 13.812 36.464 15.372 36.464C17.892 36.464 20.004 35.468 21.708 33.476L25.452 36.932C24.252 38.396 22.764 39.512 20.988 40.28C19.212 41.048 17.232 41.432 15.048 41.432ZM37.5424 41.288C35.5024 41.288 33.6664 40.868 32.0344 40.028C30.4264 39.164 29.1664 37.976 28.2544 36.464C27.3424 34.952 26.8864 33.236 26.8864 31.316C26.8864 29.396 27.3424 27.68 28.2544 26.168C29.1664 24.656 30.4264 23.48 32.0344 22.64C33.6664 21.776 35.5024 21.344 37.5424 21.344C39.5824 21.344 41.4064 21.776 43.0144 22.64C44.6224 23.48 45.8824 24.656 46.7944 26.168C47.7064 27.68 48.1624 29.396 48.1624 31.316C48.1624 33.236 47.7064 34.952 46.7944 36.464C45.8824 37.976 44.6224 39.164 43.0144 40.028C41.4064 40.868 39.5824 41.288 37.5424 41.288ZM37.5424 36.68C38.9824 36.68 40.1584 36.2 41.0704 35.24C42.0064 34.256 42.4744 32.948 42.4744 31.316C42.4744 29.684 42.0064 28.388 41.0704 27.428C40.1584 26.444 38.9824 25.952 37.5424 25.952C36.1024 25.952 34.9144 26.444 33.9784 27.428C33.0424 28.388 32.5744 29.684 32.5744 31.316C32.5744 32.948 33.0424 34.256 33.9784 35.24C34.9144 36.2 36.1024 36.68 37.5424 36.68ZM63.6882 21.344C66.0882 21.344 68.0202 22.064 69.4842 23.504C70.9722 24.944 71.7162 27.08 71.7162 29.912V41H66.1002V30.776C66.1002 29.24 65.7642 28.1 65.0922 27.356C64.4202 26.588 63.4482 26.204 62.1762 26.204C60.7602 26.204 59.6322 26.648 58.7922 27.536C57.9522 28.4 57.5322 29.696 57.5322 31.424V41H51.9162V21.632H57.2802V23.9C58.0242 23.084 58.9482 22.46 60.0522 22.028C61.1562 21.572 62.3682 21.344 63.6882 21.344ZM86.3778 41.288C84.3138 41.288 82.4538 40.868 80.7978 40.028C79.1658 39.164 77.8818 37.976 76.9458 36.464C76.0338 34.952 75.5778 33.236 75.5778 31.316C75.5778 29.396 76.0338 27.68 76.9458 26.168C77.8818 24.656 79.1658 23.48 80.7978 22.64C82.4538 21.776 84.3138 21.344 86.3778 21.344C88.4178 21.344 90.1938 21.776 91.7058 22.64C93.2418 23.48 94.3578 24.692 95.0538 26.276L90.6978 28.616C89.6898 26.84 88.2378 25.952 86.3418 25.952C84.8778 25.952 83.6658 26.432 82.7058 27.392C81.7458 28.352 81.2658 29.66 81.2658 31.316C81.2658 32.972 81.7458 34.28 82.7058 35.24C83.6658 36.2 84.8778 36.68 86.3418 36.68C88.2618 36.68 89.7138 35.792 90.6978 34.016L95.0538 36.392C94.3578 37.928 93.2418 39.128 91.7058 39.992C90.1938 40.856 88.4178 41.288 86.3778 41.288ZM117.013 31.388C117.013 31.46 116.977 31.964 116.905 32.9H102.253C102.517 34.1 103.141 35.048 104.125 35.744C105.109 36.44 106.333 36.788 107.797 36.788C108.805 36.788 109.693 36.644 110.461 36.356C111.253 36.044 111.985 35.564 112.657 34.916L115.645 38.156C113.821 40.244 111.157 41.288 107.653 41.288C105.469 41.288 103.537 40.868 101.857 40.028C100.177 39.164 98.8812 37.976 97.9692 36.464C97.0572 34.952 96.6012 33.236 96.6012 31.316C96.6012 29.42 97.0452 27.716 97.9332 26.204C98.8452 24.668 100.081 23.48 101.641 22.64C103.225 21.776 104.989 21.344 106.933 21.344C108.829 21.344 110.545 21.752 112.081 22.568C113.617 23.384 114.817 24.56 115.681 26.096C116.569 27.608 117.013 29.372 117.013 31.388ZM106.969 25.592C105.697 25.592 104.629 25.952 103.765 26.672C102.901 27.392 102.373 28.376 102.181 29.624H111.721C111.529 28.4 111.001 27.428 110.137 26.708C109.273 25.964 108.217 25.592 106.969 25.592ZM132.2 21.344C134 21.344 135.632 21.764 137.096 22.604C138.584 23.42 139.748 24.584 140.588 26.096C141.428 27.584 141.848 29.324 141.848 31.316C141.848 33.308 141.428 35.06 140.588 36.572C139.748 38.06 138.584 39.224 137.096 40.064C135.632 40.88 134 41.288 132.2 41.288C129.728 41.288 127.784 40.508 126.368 38.948V47.984H120.752V21.632H126.116V23.864C127.508 22.184 129.536 21.344 132.2 21.344ZM131.228 36.68C132.668 36.68 133.844 36.2 134.756 35.24C135.692 34.256 136.16 32.948 136.16 31.316C136.16 29.684 135.692 28.388 134.756 27.428C133.844 26.444 132.668 25.952 131.228 25.952C129.788 25.952 128.6 26.444 127.664 27.428C126.752 28.388 126.296 29.684 126.296 31.316C126.296 32.948 126.752 34.256 127.664 35.24C128.6 36.2 129.788 36.68 131.228 36.68ZM158.1 40.064C157.548 40.472 156.864 40.784 156.048 41C155.256 41.192 154.416 41.288 153.528 41.288C151.224 41.288 149.436 40.7 148.164 39.524C146.916 38.348 146.292 36.62 146.292 34.34V26.384H143.304V22.064H146.292V17.348H151.908V22.064H156.732V26.384H151.908V34.268C151.908 35.084 152.112 35.72 152.52 36.176C152.952 36.608 153.552 36.824 154.32 36.824C155.208 36.824 155.964 36.584 156.588 36.104L158.1 40.064ZM180.123 41.432C178.131 41.432 176.199 41.168 174.327 40.64C172.479 40.088 170.991 39.38 169.863 38.516L171.843 34.124C172.923 34.916 174.207 35.552 175.695 36.032C177.183 36.512 178.671 36.752 180.159 36.752C181.815 36.752 183.039 36.512 183.831 36.032C184.623 35.528 185.019 34.868 185.019 34.052C185.019 33.452 184.779 32.96 184.299 32.576C183.843 32.168 183.243 31.844 182.499 31.604C181.779 31.364 180.795 31.1 179.547 30.812C177.627 30.356 176.055 29.9 174.831 29.444C173.607 28.988 172.551 28.256 171.663 27.248C170.799 26.24 170.367 24.896 170.367 23.216C170.367 21.752 170.763 20.432 171.555 19.256C172.347 18.056 173.535 17.108 175.119 16.412C176.727 15.716 178.683 15.368 180.987 15.368C182.595 15.368 184.167 15.56 185.703 15.944C187.239 16.328 188.583 16.88 189.735 17.6L187.935 22.028C185.607 20.708 183.279 20.048 180.951 20.048C179.319 20.048 178.107 20.312 177.315 20.84C176.547 21.368 176.163 22.064 176.163 22.928C176.163 23.792 176.607 24.44 177.495 24.872C178.407 25.28 179.787 25.688 181.635 26.096C183.555 26.552 185.127 27.008 186.351 27.464C187.575 27.92 188.619 28.64 189.483 29.624C190.371 30.608 190.815 31.94 190.815 33.62C190.815 35.06 190.407 36.38 189.591 37.58C188.799 38.756 187.599 39.692 185.991 40.388C184.383 41.084 182.427 41.432 180.123 41.432ZM206.897 40.064C206.345 40.472 205.661 40.784 204.845 41C204.053 41.192 203.213 41.288 202.325 41.288C200.021 41.288 198.233 40.7 196.961 39.524C195.713 38.348 195.089 36.62 195.089 34.34V26.384H192.101V22.064H195.089V17.348H200.705V22.064H205.529V26.384H200.705V34.268C200.705 35.084 200.909 35.72 201.316 36.176C201.749 36.608 202.349 36.824 203.117 36.824C204.005 36.824 204.761 36.584 205.385 36.104L206.897 40.064ZM218.667 41.288C216.627 41.288 214.791 40.868 213.159 40.028C211.551 39.164 210.291 37.976 209.379 36.464C208.467 34.952 208.011 33.236 208.011 31.316C208.011 29.396 208.467 27.68 209.379 26.168C210.291 24.656 211.551 23.48 213.159 22.64C214.791 21.776 216.627 21.344 218.667 21.344C220.707 21.344 222.531 21.776 224.139 22.64C225.747 23.48 227.007 24.656 227.919 26.168C228.831 27.68 229.287 29.396 229.287 31.316C229.287 33.236 228.831 34.952 227.919 36.464C227.007 37.976 225.747 39.164 224.139 40.028C222.531 40.868 220.707 41.288 218.667 41.288ZM218.667 36.68C220.107 36.68 221.283 36.2 222.195 35.24C223.131 34.256 223.599 32.948 223.599 31.316C223.599 29.684 223.131 28.388 222.195 27.428C221.283 26.444 220.107 25.952 218.667 25.952C217.227 25.952 216.039 26.444 215.103 27.428C214.167 28.388 213.699 29.684 213.699 31.316C213.699 32.948 214.167 34.256 215.103 35.24C216.039 36.2 217.227 36.68 218.667 36.68ZM238.405 24.188C239.077 23.252 239.977 22.544 241.105 22.064C242.257 21.584 243.577 21.344 245.065 21.344V26.528C244.441 26.48 244.021 26.456 243.805 26.456C242.197 26.456 240.937 26.912 240.025 27.824C239.113 28.712 238.657 30.056 238.657 31.856V41H233.041V21.632H238.405V24.188ZM267.201 31.388C267.201 31.46 267.165 31.964 267.093 32.9H252.441C252.705 34.1 253.329 35.048 254.313 35.744C255.297 36.44 256.521 36.788 257.985 36.788C258.993 36.788 259.881 36.644 260.649 36.356C261.441 36.044 262.173 35.564 262.845 34.916L265.833 38.156C264.009 40.244 261.345 41.288 257.841 41.288C255.657 41.288 253.725 40.868 252.045 40.028C250.365 39.164 249.069 37.976 248.157 36.464C247.245 34.952 246.789 33.236 246.789 31.316C246.789 29.42 247.233 27.716 248.121 26.204C249.033 24.668 250.269 23.48 251.829 22.64C253.413 21.776 255.177 21.344 257.121 21.344C259.017 21.344 260.733 21.752 262.269 22.568C263.805 23.384 265.005 24.56 265.869 26.096C266.757 27.608 267.201 29.372 267.201 31.388ZM257.157 25.592C255.885 25.592 254.817 25.952 253.953 26.672C253.089 27.392 252.561 28.376 252.369 29.624H261.909C261.717 28.4 261.189 27.428 260.325 26.708C259.461 25.964 258.405 25.592 257.157 25.592Z" fill="#283593"/>
<path d="M325.984 19.8762C325.979 19.8407 325.972 19.8057 325.962 19.7712C325.956 19.7445 325.949 19.718 325.94 19.6921C325.929 19.6697 325.916 19.648 325.903 19.6271L325.882 19.5904C325.867 19.5619 325.85 19.5341 325.833 19.5071C325.817 19.4863 325.798 19.4671 325.781 19.4479C325.755 19.4211 325.727 19.3963 325.697 19.3738C325.671 19.3469 325.644 19.3218 325.614 19.2988L324.325 18.493C324.333 18.4415 324.335 18.3893 324.333 18.3372V11.6714V11.6556C324.331 11.6237 324.326 11.5919 324.32 11.5606C324.315 11.5104 324.305 11.4608 324.291 11.4123C324.291 11.4039 324.291 11.3956 324.286 11.3873C324.275 11.364 324.263 11.3415 324.249 11.3198C324.229 11.2761 324.206 11.234 324.18 11.1939C324.159 11.1647 324.136 11.1368 324.111 11.1106C324.081 11.0773 324.049 11.0464 324.014 11.0181C323.984 10.9955 323.953 10.975 323.92 10.9565C323.897 10.9431 323.879 10.9256 323.856 10.9148C323.839 10.9087 323.821 10.9034 323.803 10.899C323.768 10.8853 323.731 10.8742 323.694 10.8657C323.651 10.855 323.606 10.8481 323.562 10.8448C323.542 10.8448 323.522 10.8357 323.502 10.8357H314.083C312.715 3.61311 305.751 -1.13297 298.527 0.234883C293.15 1.2532 288.943 5.45882 287.925 10.8357H278.5C278.481 10.8357 278.462 10.8432 278.443 10.8448C278.397 10.8476 278.351 10.8546 278.306 10.8657C278.27 10.8743 278.234 10.8852 278.199 10.8982C278.182 10.9048 278.163 10.9065 278.147 10.9148C278.13 10.9232 278.105 10.9431 278.082 10.9565C278.05 10.975 278.018 10.9955 277.988 11.0181C277.954 11.0464 277.921 11.0773 277.892 11.1106C277.867 11.1368 277.844 11.1647 277.822 11.1939C277.796 11.234 277.773 11.2761 277.753 11.3198C277.74 11.3415 277.728 11.364 277.717 11.3873C277.717 11.3956 277.717 11.4039 277.712 11.4123C277.698 11.4608 277.688 11.5104 277.682 11.5606C277.676 11.5919 277.67 11.6237 277.667 11.6556V11.6714V18.3372C277.667 18.3889 277.671 18.4406 277.681 18.4914L276.392 19.2971C276.362 19.3201 276.334 19.3452 276.308 19.3721C276.279 19.3946 276.251 19.4194 276.225 19.4463C276.208 19.4654 276.189 19.4846 276.173 19.5054C276.156 19.5324 276.139 19.5602 276.124 19.5887L276.103 19.6254C276.09 19.6463 276.077 19.668 276.066 19.6904C276.057 19.7163 276.05 19.7428 276.044 19.7696C276.034 19.8039 276.027 19.839 276.022 19.8745C276.012 19.9115 276.005 19.9491 276 19.987V20.0037V49.1668C276 49.6269 276.373 50 276.833 50H325.167C325.627 50 326 49.6269 326 49.1668V20.0037C326 19.9979 326 19.9929 326 19.987C325.997 19.9499 325.992 19.9128 325.984 19.8762ZM321.198 12.5046L317.967 15.1968C317.613 15.4911 317.565 16.0165 317.859 16.3702C317.916 16.4384 317.983 16.4972 318.058 16.5441L322.261 19.1705H314.286C314.148 16.7841 313.364 14.4801 312.018 12.5046H321.198ZM322.667 13.4503V17.4582L319.917 15.7409L322.667 13.4503ZM309.937 12.5046C311.518 14.3841 312.458 16.7195 312.619 19.1705H289.381C289.542 16.7195 290.482 14.3841 292.063 12.5046H309.937ZM293.802 10.8382C293.871 10.784 293.931 10.7232 294.001 10.6715C298.149 7.56075 303.853 7.56075 308.001 10.6715C308.071 10.724 308.131 10.7848 308.199 10.8382H293.802ZM301 1.67262C306.475 1.68304 311.208 5.49278 312.388 10.8382H310.655C310.145 10.2936 309.592 9.79204 309 9.33834C304.259 5.78326 297.741 5.78326 293 9.33834C292.408 9.79225 291.855 10.2939 291.345 10.8382H289.613C290.792 5.49278 295.525 1.68304 301 1.67262ZM289.982 12.5046C288.635 14.4799 287.852 16.7841 287.714 19.1705H279.739L283.942 16.5441C284.332 16.3004 284.451 15.7864 284.207 15.396C284.16 15.3207 284.102 15.2536 284.033 15.1968L280.802 12.5046H289.982ZM279.333 13.4503L282.083 15.7409L279.333 17.4582V13.4503ZM324.333 48.3335H277.667V20.8369H324.333V48.3335Z" fill="#283593"/>
<path d="M291.804 43.4408C296.43 48.5194 304.298 48.8867 309.377 44.2614C309.671 43.9929 309.953 43.7105 310.221 43.415C310.281 43.3654 310.334 43.3076 310.378 43.2433C314.588 38.4907 314.537 31.3285 310.259 26.6362L310.258 26.6337C310.238 26.6096 310.218 26.5867 310.196 26.5654C305.569 21.4876 297.702 21.1213 292.623 25.7473C292.338 26.0071 292.065 26.2801 291.805 26.5654C291.778 26.5915 291.753 26.6193 291.73 26.6487C287.419 31.3912 287.424 38.634 291.741 43.3708C291.761 43.3954 291.782 43.4187 291.804 43.4408ZM304.99 45.0623C305.578 44.2287 306.056 43.3227 306.412 42.3668L306.413 42.3659C307.045 42.5382 307.666 42.7534 308.269 43.01C307.308 43.8852 306.197 44.5804 304.99 45.0623ZM309.473 41.731C308.655 41.3395 307.804 41.0216 306.93 40.7811C307.358 39.1656 307.598 37.5058 307.645 35.8351H311.791C311.627 37.9884 310.82 40.0427 309.473 41.731ZM311.791 34.1686H307.645C307.598 32.4979 307.358 30.8381 306.93 29.2226C307.804 28.9818 308.655 28.6639 309.473 28.2727C310.82 29.961 311.627 32.0153 311.791 34.1686ZM306.413 27.6378C306.056 26.6812 305.578 25.7748 304.989 24.9406C306.196 25.4225 307.307 26.1176 308.268 26.9928C307.665 27.2494 307.045 27.4648 306.413 27.6378ZM301.833 24.3448C302.934 24.7864 304 26.0746 304.783 28.0052C303.808 28.1746 302.823 28.2767 301.833 28.311V24.3448ZM301.833 29.98C303.004 29.9425 304.17 29.8147 305.321 29.5975C305.715 31.0909 305.936 32.6246 305.979 34.1686H301.833V29.98ZM301.833 35.8351H305.979C305.936 37.3791 305.715 38.913 305.32 40.4062C304.169 40.191 303.004 40.0636 301.833 40.0254V35.8351ZM301.833 41.6927C302.823 41.7269 303.808 41.829 304.783 41.9985C304 43.9291 302.934 45.2173 301.833 45.6589V41.6927ZM293.733 43.0109C294.336 42.7544 294.955 42.539 295.588 42.3659H295.588C295.945 43.3225 296.423 44.229 297.012 45.0631C295.804 44.5812 294.694 43.8861 293.733 43.0109ZM300.167 45.6589C299.066 45.2173 298 43.9291 297.217 41.9985C298.192 41.8291 299.178 41.727 300.167 41.6927V45.6589ZM300.167 40.0254C298.996 40.0638 297.831 40.1911 296.68 40.4062C296.285 38.913 296.063 37.3791 296.021 35.8351H300.167V40.0254ZM300.167 34.1686H296.021C296.064 32.6246 296.285 31.0907 296.68 29.5975C297.831 29.8148 298.996 29.9427 300.167 29.98V34.1686ZM300.167 24.3448V28.311C299.178 28.2769 298.192 28.1747 297.217 28.0052C298 26.0746 299.066 24.7864 300.167 24.3448ZM297.011 24.9406C296.423 25.7743 295.944 26.6807 295.588 27.6369C294.956 27.4647 294.335 27.2495 293.732 26.9928C294.693 26.1177 295.804 25.4226 297.011 24.9406ZM292.527 28.2727C293.345 28.6642 294.196 28.9821 295.07 29.2226C294.642 30.8381 294.402 32.4979 294.355 34.1686H290.209C290.373 32.0153 291.18 29.961 292.527 28.2727ZM294.355 35.8351C294.402 37.5058 294.642 39.1656 295.07 40.7811C294.196 41.0219 293.345 41.3398 292.527 41.731C291.18 40.0426 290.373 37.9884 290.209 35.8351H294.355Z" fill="#283593"/>
</svg>
